<?xml version="1.0" encoding="UTF-8" standalone="no" ?>
<!DOCTYPE svg PUBLIC "-//W3C//DTD SVG 1.1//EN" "http://www.w3.org/Graphics/SVG/1.1/DTD/svg11.dtd">
<svg xmlns="http://www.w3.org/2000/svg" xmlns:xlink="http://www.w3.org/1999/xlink" version="1.1" width="1080" height="1080" viewBox="0 0 1080 1080" xml:space="preserve">
<desc>Created with Fabric.js 5.2.4</desc>
<defs>
</defs>
<rect x="0" y="0" width="100%" height="100%" fill="transparent"></rect>
<g transform="matrix(1 0 0 1 540 540)" id="656435f5-c0b7-4950-ba96-de334d8f6f4e"  >
<rect style="stroke: none; stroke-width: 1; stroke-dasharray: none; stroke-linecap: butt; stroke-dashoffset: 0; stroke-linejoin: miter; stroke-miterlimit: 4; fill: rgb(255,255,255); fill-rule: nonzero; opacity: 1; visibility: hidden;" vector-effect="non-scaling-stroke"  x="-540" y="-540" rx="0" ry="0" width="1080" height="1080" />
</g>
<g transform="matrix(1 0 0 1 540 540)" id="23447149-0515-46f3-ad8e-b44e26087cae"  >
</g>
<g transform="matrix(1.73 0 0 1.66 540 540)"  >
<g style="" vector-effect="non-scaling-stroke"   >
		<g transform="matrix(0.13 0 0 -0.13 36.21 -100.89)"  >
<path style="stroke: none; stroke-width: 1; stroke-dasharray: none; stroke-linecap: butt; stroke-dashoffset: 0; stroke-linejoin: miter; stroke-miterlimit: 4; fill: rgb(238,185,48); fill-rule: nonzero; opacity: 1;" vector-effect="non-scaling-stroke"  transform=" translate(-2771.45, -3257.5)" d="M 2825 4805 C 2677 4611 2542 4538 2223 4480 C 2013 4442 1962 4427 1877 4383 C 1584 4229 1465 3794 1591 3343 C 1622 3232 1625 3208 1611 3181 C 1606 3172 1553 3115 1493 3055 C 1147 2704 1012 2242 1141 1855 C 1172 1763 1234 1644 1256 1636 C 1263 1633 1273 1637 1279 1644 C 1288 1654 1283 1676 1261 1731 C 1200 1883 1187 1953 1193 2085 C 1200 2228 1217 2295 1275 2415 C 1352 2576 1502 2711 1678 2778 C 1816 2831 1884 2844 2008 2842 C 2265 2838 2490 2943 2555 3097 C 2574 3140 2577 3251 2561 3293 C 2548 3327 2551 3327 2655 3296 C 2814 3249 2945 3190 3075 3106 C 3245 2995 3327 2911 3472 2695 C 3542 2591 3613 2498 3657 2452 C 3668 2441 3654 2431 3579 2394 C 3493 2352 3486 2350 3447 2361 C 3361 2383 3281 2451 3164 2600 C 3086 2700 3040 2742 2880 2865 C 2806 2922 2723 2991 2695 3019 C 2643 3073 2626 3080 2616 3054 C 2609 3036 2639 2991 2700 2925 C 2737 2886 2738 2882 2742 2800 C 2747 2707 2761 2671 2811 2621 C 2866 2565 2910 2549 3017 2546 L 3114 2544 L 3149 2499 C 3258 2364 3360 2294 3464 2283 L 3520 2277 L 3520 2233 C 3520 2112 3602 2054 3791 2043 C 3869 2038 3893 2040 3923 2055 C 3977 2081 4004 2130 4003 2205 C 4002 2305 3968 2350 3841 2416 C 3736 2470 3664 2547 3523 2755 C 3415 2915 3322 3026 3256 3074 C 3227 3094 3220 3256 3245 3329 C 3280 3435 3364 3510 3513 3569 C 3629 3615 3706 3656 3750 3696 L 3789 3732 L 3783 3678 C 3780 3649 3772 3578 3765 3521 C 3754 3423 3754 3416 3772 3398 C 3786 3384 3795 3382 3809 3390 C 3828 3400 3843 3432 3902 3600 C 3970 3792 4031 3885 4121 3935 C 4172 3963 4181 3965 4275 3963 C 4330 3962 4388 3960 4404 3958 C 4423 3956 4436 3961 4444 3973 C 4462 4001 4440 4021 4369 4045 C 4278 4076 4231 4102 4188 4146 C 4099 4235 4084 4332 4124 4564 C 4156 4746 4157 4786 4131 4795 C 4091 4807 4081 4790 4029 4626 C 3952 4385 3913 4317 3818 4265 C 3770 4238 3756 4235 3675 4235 C 3626 4235 3562 4239 3533 4243 C 3487 4251 3481 4250 3470 4231 C 3453 4199 3473 4174 3526 4161 C 3622 4137 3740 4058 3740 4019 C 3740 3986 3542 3938 3330 3920 C 3040 3895 2925 3859 2801 3756 C 2705 3675 2618 3538 2604 3444 C 2597 3397 2592 3394 2533 3406 C 2509 3411 2490 3432 2432 3520 C 2339 3658 2316 3720 2322 3820 C 2330 3951 2381 4020 2562 4146 C 2802 4313 2915 4501 2936 4767 C 2943 4854 2935 4880 2900 4880 C 2890 4880 2858 4847 2825 4805 z M 2855 4698 C 2832 4557 2767 4429 2667 4323 C 2579 4230 2499 4206 2429 4253 C 2383 4284 2367 4320 2381 4357 C 2399 4404 2429 4428 2545 4485 C 2671 4547 2753 4608 2813 4685 C 2836 4715 2857 4740 2858 4740 C 2860 4740 2859 4721 2855 4698 z M 2249 4362 C 2174 4244 2156 4057 2199 3853 C 2227 3719 2243 3685 2351 3524 C 2402 3448 2454 3362 2467 3331 C 2510 3225 2490 3129 2410 3056 C 2274 2934 2029 3027 1875 3260 C 1777 3408 1691 3622 1669 3774 C 1629 4043 1789 4293 2055 4376 C 2130 4399 2256 4421 2272 4413 C 2276 4411 2266 4388 2249 4362 z M 4066 4169 C 4081 4142 4111 4103 4132 4084 C 4153 4066 4170 4049 4170 4047 C 4170 4045 4153 4038 4132 4031 C 4050 4004 3946 3904 3903 3811 C 3885 3770 3864 3754 3875 3788 C 3883 3816 3863 3941 3840 4003 C 3829 4033 3801 4078 3780 4103 C 3735 4154 3733 4160 3758 4160 C 3827 4160 3959 4250 3997 4324 L 4013 4355 L 4026 4288 C 4033 4250 4051 4197 4066 4169 z M 2914 2756 C 2964 2715 3016 2670 3029 2656 C 3051 2632 3052 2630 3035 2624 C 3009 2614 2914 2636 2881 2659 C 2865 2670 2845 2696 2835 2716 C 2816 2757 2803 2830 2815 2830 C 2819 2830 2864 2797 2914 2756 z" stroke-linecap="round" />
</g>
		<g transform="matrix(0.13 0 0 -0.13 -116.54 -297.4)"  >
<path style="stroke: none; stroke-width: 1; stroke-dasharray: none; stroke-linecap: butt; stroke-dashoffset: 0; stroke-linejoin: miter; stroke-miterlimit: 4; fill: rgb(238,185,48); fill-rule: nonzero; opacity: 1;" vector-effect="non-scaling-stroke"  transform=" translate(-1625.79, -4731.29)" d="M 1592 4754 C 1572 4718 1605 4681 1643 4696 C 1682 4710 1667 4770 1625 4770 C 1612 4770 1597 4763 1592 4754 z" stroke-linecap="round" />
</g>
		<g transform="matrix(0.13 0 0 -0.13 -233.88 -98.26)"  >
<path style="stroke: none; stroke-width: 1; stroke-dasharray: none; stroke-linecap: butt; stroke-dashoffset: 0; stroke-linejoin: miter; stroke-miterlimit: 4; fill: rgb(238,185,48); fill-rule: nonzero; opacity: 1;" vector-effect="non-scaling-stroke"  transform=" translate(-745.72, -3237.71)" d="M 512 3918 C 493 3899 497 3870 537 3717 C 567 3599 574 3557 574 3470 C 575 3373 573 3361 548 3319 C 511 3255 459 3213 371 3173 C 264 3124 265 3125 262 3103 C 256 3064 283 3056 361 3074 C 513 3108 602 3087 694 2994 C 732 2955 761 2907 831 2763 C 880 2662 920 2576 920 2570 C 920 2552 959 2539 980 2550 C 1006 2564 1006 2574 969 2742 C 927 2932 923 3088 958 3166 C 990 3237 1025 3267 1133 3320 C 1228 3367 1249 3392 1215 3420 C 1203 3430 1188 3429 1135 3416 C 1046 3394 917 3395 863 3419 C 813 3442 748 3506 721 3557 C 711 3578 672 3667 635 3755 C 598 3843 563 3918 556 3922 C 540 3933 526 3932 512 3918 z M 822 3351 C 856 3334 897 3320 915 3320 C 960 3320 963 3311 931 3274 C 878 3215 856 3139 856 3018 C 855 2959 853 2914 850 2918 C 847 2922 827 2951 806 2983 C 784 3015 748 3057 726 3077 C 684 3113 601 3160 578 3160 C 571 3160 559 3164 551 3169 C 539 3177 544 3187 574 3221 C 625 3277 652 3341 658 3422 L 663 3489 L 712 3435 C 742 3402 785 3369 822 3351 z" stroke-linecap="round" />
</g>
		<g transform="matrix(0.13 0 0 -0.13 -148.02 -126.59)"  >
<path style="stroke: none; stroke-width: 1; stroke-dasharray: none; stroke-linecap: butt; stroke-dashoffset: 0; stroke-linejoin: miter; stroke-miterlimit: 4; fill: rgb(238,185,48); fill-rule: nonzero; opacity: 1;" vector-effect="non-scaling-stroke"  transform=" translate(-1389.7, -3450.25)" d="M 1360 3475 C 1334 3443 1373 3394 1408 3416 C 1442 3438 1430 3490 1390 3490 C 1380 3490 1367 3483 1360 3475 z" stroke-linecap="round" />
</g>
		<g transform="matrix(0.13 0 0 -0.13 161.13 -81.15)"  >
<path style="stroke: none; stroke-width: 1; stroke-dasharray: none; stroke-linecap: butt; stroke-dashoffset: 0; stroke-linejoin: miter; stroke-miterlimit: 4; fill: rgb(238,185,48); fill-rule: nonzero; opacity: 1;" vector-effect="non-scaling-stroke"  transform=" translate(-3708.34, -3109.41)" d="M 3681 3136 C 3665 3117 3670 3090 3693 3076 C 3718 3060 3745 3080 3745 3116 C 3745 3140 3740 3146 3719 3148 C 3705 3150 3688 3144 3681 3136 z" stroke-linecap="round" />
</g>
		<g transform="matrix(0.13 0 0 -0.13 -273.24 13.26)"  >
<path style="stroke: none; stroke-width: 1; stroke-dasharray: none; stroke-linecap: butt; stroke-dashoffset: 0; stroke-linejoin: miter; stroke-miterlimit: 4; fill: rgb(238,185,48); fill-rule: nonzero; opacity: 1;" vector-effect="non-scaling-stroke"  transform=" translate(-450.53, -2401.38)" d="M 421 2426 C 414 2418 410 2401 412 2388 C 414 2370 421 2365 444 2365 C 480 2365 500 2392 484 2418 C 470 2440 436 2445 421 2426 z" stroke-linecap="round" />
</g>
		<g transform="matrix(0.13 0 0 -0.13 293.29 13.39)"  >
<path style="stroke: none; stroke-width: 1; stroke-dasharray: none; stroke-linecap: butt; stroke-dashoffset: 0; stroke-linejoin: miter; stroke-miterlimit: 4; fill: rgb(238,185,48); fill-rule: nonzero; opacity: 1;" vector-effect="non-scaling-stroke"  transform=" translate(-4699.49, -2400.34)" d="M 4664 2426 C 4649 2386 4685 2346 4718 2366 C 4755 2390 4739 2440 4693 2440 C 4680 2440 4667 2434 4664 2426 z" stroke-linecap="round" />
</g>
		<g transform="matrix(0.13 0 0 -0.13 -0.06 165.52)"  >
<path style="stroke: none; stroke-width: 1; stroke-dasharray: none; stroke-linecap: butt; stroke-dashoffset: 0; stroke-linejoin: miter; stroke-miterlimit: 4; fill: rgb(238,185,48); fill-rule: nonzero; opacity: 1;" vector-effect="non-scaling-stroke"  transform=" translate(-2499.41, -1259.39)" d="M 2180 2390 C 2092 2373 1993 2292 1949 2203 C 1932 2169 1924 2133 1922 2077 C 1918 2009 1921 1993 1944 1946 C 1982 1869 2070 1791 2184 1734 C 2304 1674 2310 1662 2280 1561 C 2152 1130 2240 725 2534 387 C 2571 345 2598 310 2595 310 C 2591 310 2538 334 2477 363 C 2211 490 1973 669 1838 846 C 1779 923 1730 1006 1730 1029 C 1730 1058 1805 1136 1856 1159 C 1887 1174 1934 1184 1997 1189 C 2088 1197 2110 1206 2110 1235 C 2110 1262 2088 1272 2012 1281 C 1907 1293 1827 1323 1774 1372 C 1699 1441 1679 1516 1664 1797 C 1660 1867 1653 1933 1648 1943 C 1643 1952 1628 1960 1614 1960 C 1583 1960 1575 1939 1566 1840 C 1550 1665 1527 1523 1508 1478 C 1480 1413 1406 1346 1339 1325 C 1309 1316 1245 1305 1197 1301 C 1136 1297 1106 1290 1100 1280 C 1074 1239 1099 1221 1197 1209 C 1300 1197 1350 1177 1399 1130 C 1478 1053 1500 982 1525 730 C 1544 529 1549 510 1585 510 C 1618 510 1622 521 1650 715 C 1662 803 1676 881 1679 888 C 1684 897 1705 877 1742 828 C 1815 734 1964 587 2065 509 C 2386 264 2760 128 3120 126 L 3265 125 L 3265 150 C 3265 178 3256 181 3112 199 C 3014 211 2957 234 2900 286 C 2852 329 2825 379 2781 503 C 2667 827 2681 1187 2819 1475 C 2907 1660 3008 1737 3177 1749 C 3226 1752 3297 1752 3335 1748 C 3473 1735 3672 1738 3735 1755 C 3835 1782 3915 1851 3908 1905 C 3903 1937 3873 1934 3828 1896 C 3731 1813 3563 1800 3168 1846 C 2923 1874 2786 1874 2645 1846 C 2540 1826 2317 1825 2232 1845 C 2110 1874 2037 1932 2015 2018 C 1992 2104 2019 2189 2090 2260 C 2183 2353 2314 2324 2327 2207 C 2334 2150 2304 2114 2262 2125 C 2206 2139 2185 2136 2182 2115 C 2178 2083 2222 2047 2267 2047 C 2324 2047 2365 2073 2389 2123 C 2415 2177 2415 2195 2390 2263 C 2353 2361 2275 2408 2180 2390 z M 1712 1317 C 1736 1293 1770 1267 1788 1259 C 1819 1246 1831 1230 1811 1230 C 1805 1230 1774 1205 1741 1174 C 1677 1115 1630 1034 1606 944 C 1593 896 1593 896 1585 925 C 1552 1062 1499 1158 1423 1216 L 1381 1248 L 1434 1279 C 1497 1314 1541 1364 1578 1442 L 1605 1498 L 1636 1430 C 1654 1392 1688 1342 1712 1317 z" stroke-linecap="round" />
</g>
		<g transform="matrix(0.13 0 0 -0.13 -217.38 168.06)"  >
<path style="stroke: none; stroke-width: 1; stroke-dasharray: none; stroke-linecap: butt; stroke-dashoffset: 0; stroke-linejoin: miter; stroke-miterlimit: 4; fill: rgb(238,185,48); fill-rule: nonzero; opacity: 1;" vector-effect="non-scaling-stroke"  transform=" translate(-869.49, -1240.34)" d="M 834 1266 C 819 1226 855 1186 888 1206 C 925 1230 909 1280 863 1280 C 850 1280 837 1274 834 1266 z" stroke-linecap="round" />
</g>
		<g transform="matrix(0.13 0 0 -0.13 137.41 170.81)"  >
<path style="stroke: none; stroke-width: 1; stroke-dasharray: none; stroke-linecap: butt; stroke-dashoffset: 0; stroke-linejoin: miter; stroke-miterlimit: 4; fill: rgb(238,185,48); fill-rule: nonzero; opacity: 1;" vector-effect="non-scaling-stroke"  transform=" translate(-3530.42, -1219.72)" d="M 3500 1245 C 3490 1233 3490 1224 3498 1205 C 3519 1160 3575 1182 3568 1232 C 3564 1260 3520 1269 3500 1245 z" stroke-linecap="round" />
</g>
		<g transform="matrix(0.13 0 0 -0.13 138.2 311.97)"  >
<path style="stroke: none; stroke-width: 1; stroke-dasharray: none; stroke-linecap: butt; stroke-dashoffset: 0; stroke-linejoin: miter; stroke-miterlimit: 4; fill: rgb(238,185,48); fill-rule: nonzero; opacity: 1;" vector-effect="non-scaling-stroke"  transform=" translate(-3536.31, -160.99)" d="M 3504 186 C 3492 154 3504 125 3532 122 C 3564 118 3582 144 3569 178 C 3559 203 3513 209 3504 186 z" stroke-linecap="round" />
</g>
</g>
</g>
<g transform="matrix(NaN NaN NaN NaN 0 0)"  >
<g style=""   >
</g>
</g>
<g transform="matrix(NaN NaN NaN NaN 0 0)"  >
<g style=""   >
</g>
</g>
<g transform="matrix(NaN NaN NaN NaN 0 0)"  >
<g style=""   >
</g>
</g>
<g transform="matrix(NaN NaN NaN NaN 0 0)"  >
<g style=""   >
</g>
</g>
</svg>