<?xml version="1.0" standalone="no"?>
<!DOCTYPE svg PUBLIC "-//W3C//DTD SVG 20010904//EN"
 "http://www.w3.org/TR/2001/REC-SVG-20010904/DTD/svg10.dtd">
<svg version="1.0" xmlns="http://www.w3.org/2000/svg"
 width="500.000000pt" height="500.000000pt" viewBox="0 0 500.000000 500.000000"
 preserveAspectRatio="xMidYMid meet">

<g transform="translate(0.000000,500.000000) scale(0.100000,-0.100000)"
fill="#000000" stroke="none">
<path d="M2825 4805 c-148 -194 -283 -267 -602 -325 -210 -38 -261 -53 -346
-97 -293 -154 -412 -589 -286 -1040 31 -111 34 -135 20 -162 -5 -9 -58 -66
-118 -126 -346 -351 -481 -813 -352 -1200 31 -92 93 -211 115 -219 7 -3 17 1
23 8 9 10 4 32 -18 87 -61 152 -74 222 -68 354 7 143 24 210 82 330 77 161
227 296 403 363 138 53 206 66 330 64 257 -4 482 101 547 255 19 43 22 154 6
196 -13 34 -10 34 94 3 159 -47 290 -106 420 -190 170 -111 252 -195 397 -411
70 -104 141 -197 185 -243 11 -11 -3 -21 -78 -58 -86 -42 -93 -44 -132 -33
-86 22 -166 90 -283 239 -78 100 -124 142 -284 265 -74 57 -157 126 -185 154
-52 54 -69 61 -79 35 -7 -18 23 -63 84 -129 37 -39 38 -43 42 -125 5 -93 19
-129 69 -179 55 -56 99 -72 206 -75 l97 -2 35 -45 c109 -135 211 -205 315
-216 l56 -6 0 -44 c0 -121 82 -179 271 -190 78 -5 102 -3 132 12 54 26 81 75
80 150 -1 100 -35 145 -162 211 -105 54 -177 131 -318 339 -108 160 -201 271
-267 319 -29 20 -36 182 -11 255 35 106 119 181 268 240 116 46 193 87 237
127 l39 36 -6 -54 c-3 -29 -11 -100 -18 -157 -11 -98 -11 -105 7 -123 14 -14
23 -16 37 -8 19 10 34 42 93 210 68 192 129 285 219 335 51 28 60 30 154 28
55 -1 113 -3 129 -5 19 -2 32 3 40 15 18 28 -4 48 -75 72 -91 31 -138 57 -181
101 -89 89 -104 186 -64 418 32 182 33 222 7 231 -40 12 -50 -5 -102 -169 -77
-241 -116 -309 -211 -361 -48 -27 -62 -30 -143 -30 -49 0 -113 4 -142 8 -46 8
-52 7 -63 -12 -17 -32 3 -57 56 -70 96 -24 214 -103 214 -142 0 -33 -198 -81
-410 -99 -290 -25 -405 -61 -529 -164 -96 -81 -183 -218 -197 -312 -7 -47 -12
-50 -71 -38 -24 5 -43 26 -101 114 -93 138 -116 200 -110 300 8 131 59 200
240 326 240 167 353 355 374 621 7 87 -1 113 -36 113 -10 0 -42 -33 -75 -75z
m30 -107 c-23 -141 -88 -269 -188 -375 -88 -93 -168 -117 -238 -70 -46 31 -62
67 -48 104 18 47 48 71 164 128 126 62 208 123 268 200 23 30 44 55 45 55 2 0
1 -19 -3 -42z m-606 -336 c-75 -118 -93 -305 -50 -509 28 -134 44 -168 152
-329 51 -76 103 -162 116 -193 43 -106 23 -202 -57 -275 -136 -122 -381 -29
-535 204 -98 148 -184 362 -206 514 -40 269 120 519 386 602 75 23 201 45 217
37 4 -2 -6 -25 -23 -51z m1817 -193 c15 -27 45 -66 66 -85 21 -18 38 -35 38
-37 0 -2 -17 -9 -38 -16 -82 -27 -186 -127 -229 -220 -18 -41 -39 -57 -28 -23
8 28 -12 153 -35 215 -11 30 -39 75 -60 100 -45 51 -47 57 -22 57 69 0 201 90
239 164 l16 31 13 -67 c7 -38 25 -91 40 -119z m-1152 -1413 c50 -41 102 -86
115 -100 22 -24 23 -26 6 -32 -26 -10 -121 12 -154 35 -16 11 -36 37 -46 57
-19 41 -32 114 -20 114 4 0 49 -33 99 -74z"/>
<path d="M1592 4754 c-20 -36 13 -73 51 -58 39 14 24 74 -18 74 -13 0 -28 -7
-33 -16z"/>
<path d="M512 3918 c-19 -19 -15 -48 25 -201 30 -118 37 -160 37 -247 1 -97
-1 -109 -26 -151 -37 -64 -89 -106 -177 -146 -107 -49 -106 -48 -109 -70 -6
-39 21 -47 99 -29 152 34 241 13 333 -80 38 -39 67 -87 137 -231 49 -101 89
-187 89 -193 0 -18 39 -31 60 -20 26 14 26 24 -11 192 -42 190 -46 346 -11
424 32 71 67 101 175 154 95 47 116 72 82 100 -12 10 -27 9 -80 -4 -89 -22
-218 -21 -272 3 -50 23 -115 87 -142 138 -10 21 -49 110 -86 198 -37 88 -72
163 -79 167 -16 11 -30 10 -44 -4z m310 -567 c34 -17 75 -31 93 -31 45 0 48
-9 16 -46 -53 -59 -75 -135 -75 -256 -1 -59 -3 -104 -6 -100 -3 4 -23 33 -44
65 -22 32 -58 74 -80 94 -42 36 -125 83 -148 83 -7 0 -19 4 -27 9 -12 8 -7 18
23 52 51 56 78 120 84 201 l5 67 49 -54 c30 -33 73 -66 110 -84z"/>
<path d="M1360 3475 c-26 -32 13 -81 48 -59 34 22 22 74 -18 74 -10 0 -23 -7
-30 -15z"/>
<path d="M3681 3136 c-16 -19 -11 -46 12 -60 25 -16 52 4 52 40 0 24 -5 30
-26 32 -14 2 -31 -4 -38 -12z"/>
<path d="M421 2426 c-7 -8 -11 -25 -9 -38 2 -18 9 -23 32 -23 36 0 56 27 40
53 -14 22 -48 27 -63 8z"/>
<path d="M4664 2426 c-15 -40 21 -80 54 -60 37 24 21 74 -25 74 -13 0 -26 -6
-29 -14z"/>
<path d="M2180 2390 c-88 -17 -187 -98 -231 -187 -17 -34 -25 -70 -27 -126 -4
-68 -1 -84 22 -131 38 -77 126 -155 240 -212 120 -60 126 -72 96 -173 -128
-431 -40 -836 254 -1174 37 -42 64 -77 61 -77 -4 0 -57 24 -118 53 -266 127
-504 306 -639 483 -59 77 -108 160 -108 183 0 29 75 107 126 130 31 15 78 25
141 30 91 8 113 17 113 46 0 27 -22 37 -98 46 -105 12 -185 42 -238 91 -75 69
-95 144 -110 425 -4 70 -11 136 -16 146 -5 9 -20 17 -34 17 -31 0 -39 -21 -48
-120 -16 -175 -39 -317 -58 -362 -28 -65 -102 -132 -169 -153 -30 -9 -94 -20
-142 -24 -61 -4 -91 -11 -97 -21 -26 -41 -1 -59 97 -71 103 -12 153 -32 202
-79 79 -77 101 -148 126 -400 19 -201 24 -220 60 -220 33 0 37 11 65 205 12
88 26 166 29 173 5 9 26 -11 63 -60 73 -94 222 -241 323 -319 321 -245 695
-381 1055 -383 l145 -1 0 25 c0 28 -9 31 -153 49 -98 12 -155 35 -212 87 -48
43 -75 93 -119 217 -114 324 -100 684 38 972 88 185 189 262 358 274 49 3 120
3 158 -1 138 -13 337 -10 400 7 100 27 180 96 173 150 -5 32 -35 29 -80 -9
-97 -83 -265 -96 -660 -50 -245 28 -382 28 -523 0 -105 -20 -328 -21 -413 -1
-122 29 -195 87 -217 173 -23 86 4 171 75 242 93 93 224 64 237 -53 7 -57 -23
-93 -65 -82 -56 14 -77 11 -80 -10 -4 -32 40 -68 85 -68 57 0 98 26 122 76 26
54 26 72 1 140 -37 98 -115 145 -210 127z m-468 -1073 c24 -24 58 -50 76 -58
31 -13 43 -29 23 -29 -6 0 -37 -25 -70 -56 -64 -59 -111 -140 -135 -230 -13
-48 -13 -48 -21 -19 -33 137 -86 233 -162 291 l-42 32 53 31 c63 35 107 85
144 163 l27 56 31 -68 c18 -38 52 -88 76 -113z"/>
<path d="M834 1266 c-15 -40 21 -80 54 -60 37 24 21 74 -25 74 -13 0 -26 -6
-29 -14z"/>
<path d="M3500 1245 c-10 -12 -10 -21 -2 -40 21 -45 77 -23 70 27 -4 28 -48
37 -68 13z"/>
<path d="M3504 186 c-12 -32 0 -61 28 -64 32 -4 50 22 37 56 -10 25 -56 31
-65 8z"/>
</g>
</svg>
